<?xml version="1.0" encoding="UTF-8" standalone="no"?>
<!DOCTYPE svg PUBLIC "-//W3C//DTD SVG 1.1//EN"
 "http://www.w3.org/Graphics/SVG/1.1/DTD/svg11.dtd">
<!-- Generated by graphviz version 5.0.0 (20220707.1540)
 -->
<!-- Title: UmlClassDiagram Pages: 1 -->
<svg width="2087pt" height="1021pt"
 viewBox="0.00 0.00 2087.21 1020.60" xmlns="http://www.w3.org/2000/svg" xmlns:xlink="http://www.w3.org/1999/xlink">
<g id="graph0" class="graph" transform="scale(1 1) rotate(0) translate(4 1016.6)">
<title>UmlClassDiagram</title>
<polygon fill="white" stroke="transparent" points="-4,4 -4,-1016.6 2083.21,-1016.6 2083.21,4 -4,4"/>
<!-- 0 -->
<g id="node1" class="node">
<title>0</title>
<polygon fill="#f2f2f2" stroke="black" points="633.29,-777.7 633.29,-1012.1 982.53,-1012.1 982.53,-777.7 633.29,-777.7"/>
<text text-anchor="middle" x="807.91" y="-995.5" font-family="Times,serif" font-size="14.00">&lt;&lt;Interface&gt;&gt;</text>
<text text-anchor="middle" x="807.91" y="-978.7" font-family="Times,serif" font-size="14.00">IMinter</text>
<polyline fill="none" stroke="black" points="633.29,-970.5 982.53,-970.5 "/>
<text text-anchor="start" x="641.29" y="-953.9" font-family="Times,serif" font-size="14.00">External:</text>
<text text-anchor="start" x="641.29" y="-937.1" font-family="Times,serif" font-size="14.00"> &#160;&#160;&#160;&#160;numberOfShares(): uint256</text>
<text text-anchor="start" x="641.29" y="-920.3" font-family="Times,serif" font-size="14.00"> &#160;&#160;&#160;&#160;price(): uint256</text>
<text text-anchor="start" x="641.29" y="-903.5" font-family="Times,serif" font-size="14.00"> &#160;&#160;&#160;&#160;mintToken(tokenURI: string, _shares: uint256): uint256</text>
<text text-anchor="start" x="641.29" y="-886.7" font-family="Times,serif" font-size="14.00"> &#160;&#160;&#160;&#160;updateOracleAddress(_oracle: address)</text>
<text text-anchor="start" x="641.29" y="-869.9" font-family="Times,serif" font-size="14.00"> &#160;&#160;&#160;&#160;updateCurrentSupply(_amount: uint256): bool</text>
<text text-anchor="start" x="641.29" y="-853.1" font-family="Times,serif" font-size="14.00"> &#160;&#160;&#160;&#160;updateCarbonEstimation(_min: uint256, _max: uint256)</text>
<text text-anchor="start" x="641.29" y="-836.3" font-family="Times,serif" font-size="14.00"> &#160;&#160;&#160;&#160;setStateOk()</text>
<text text-anchor="start" x="641.29" y="-819.5" font-family="Times,serif" font-size="14.00"> &#160;&#160;&#160;&#160;setStateNaturalDisaster()</text>
<text text-anchor="start" x="641.29" y="-802.7" font-family="Times,serif" font-size="14.00"> &#160;&#160;&#160;&#160;setStateLandOwnerIssue()</text>
<text text-anchor="start" x="641.29" y="-785.9" font-family="Times,serif" font-size="14.00"> &#160;&#160;&#160;&#160;setStatePaused()</text>
</g>
<!-- 1 -->
<g id="node2" class="node">
<title>1</title>
<polygon fill="#f2f2f2" stroke="black" points="1020.06,-819.7 1020.06,-970.1 1421.76,-970.1 1421.76,-819.7 1020.06,-819.7"/>
<text text-anchor="middle" x="1220.91" y="-953.5" font-family="Times,serif" font-size="14.00">&lt;&lt;Interface&gt;&gt;</text>
<text text-anchor="middle" x="1220.91" y="-936.7" font-family="Times,serif" font-size="14.00">IShares</text>
<polyline fill="none" stroke="black" points="1020.06,-928.5 1421.76,-928.5 "/>
<text text-anchor="start" x="1028.06" y="-911.9" font-family="Times,serif" font-size="14.00">External:</text>
<text text-anchor="start" x="1028.06" y="-895.1" font-family="Times,serif" font-size="14.00"> &#160;&#160;&#160;&#160;setMinterNFT(_sender: address, _nft: address, _tokenId: uint256)</text>
<text text-anchor="start" x="1028.06" y="-878.3" font-family="Times,serif" font-size="14.00"> &#160;&#160;&#160;&#160;buyShares(shares: uint256): bool</text>
<text text-anchor="start" x="1028.06" y="-861.5" font-family="Times,serif" font-size="14.00"> &#160;&#160;&#160;&#160;transferShares(to: address, shares: uint256): bool</text>
<text text-anchor="start" x="1028.06" y="-844.7" font-family="Times,serif" font-size="14.00"> &#160;&#160;&#160;&#160;getShares(): uint256</text>
<text text-anchor="start" x="1028.06" y="-827.9" font-family="Times,serif" font-size="14.00"> &#160;&#160;&#160;&#160;getPrice(_amount: uint256): uint256</text>
</g>
<!-- 2 -->
<g id="node3" class="node">
<title>2</title>
<polygon fill="#f2f2f2" stroke="black" points="826.93,-246.3 826.93,-656.7 1260.89,-656.7 1260.89,-246.3 826.93,-246.3"/>
<text text-anchor="middle" x="1043.91" y="-640.1" font-family="Times,serif" font-size="14.00">CreditContract</text>
<polyline fill="none" stroke="black" points="826.93,-631.9 1260.89,-631.9 "/>
<text text-anchor="start" x="834.93" y="-615.3" font-family="Times,serif" font-size="14.00">Private:</text>
<text text-anchor="start" x="834.93" y="-598.5" font-family="Times,serif" font-size="14.00"> &#160;&#160;userEntries: address[]</text>
<text text-anchor="start" x="834.93" y="-581.7" font-family="Times,serif" font-size="14.00"> &#160;&#160;fixedCurrentSupply: uint256</text>
<text text-anchor="start" x="834.93" y="-564.9" font-family="Times,serif" font-size="14.00">Public:</text>
<text text-anchor="start" x="834.93" y="-548.1" font-family="Times,serif" font-size="14.00"> &#160;&#160;nft: IMinter</text>
<text text-anchor="start" x="834.93" y="-531.3" font-family="Times,serif" font-size="14.00"> &#160;&#160;sharesContract: IShares</text>
<text text-anchor="start" x="834.93" y="-514.5" font-family="Times,serif" font-size="14.00"> &#160;&#160;nftAddress: address</text>
<text text-anchor="start" x="834.93" y="-497.7" font-family="Times,serif" font-size="14.00"> &#160;&#160;owner: address</text>
<text text-anchor="start" x="834.93" y="-480.9" font-family="Times,serif" font-size="14.00"> &#160;&#160;cap: uint256</text>
<text text-anchor="start" x="834.93" y="-464.1" font-family="Times,serif" font-size="14.00"> &#160;&#160;capProgress: uint256</text>
<text text-anchor="start" x="834.93" y="-447.3" font-family="Times,serif" font-size="14.00"> &#160;&#160;currentSupply: uint256</text>
<text text-anchor="start" x="834.93" y="-430.5" font-family="Times,serif" font-size="14.00"> &#160;&#160;lastCalled: uint256</text>
<polyline fill="none" stroke="black" points="826.93,-422.3 1260.89,-422.3 "/>
<text text-anchor="start" x="834.93" y="-405.7" font-family="Times,serif" font-size="14.00">External:</text>
<text text-anchor="start" x="834.93" y="-388.9" font-family="Times,serif" font-size="14.00"> &#160;&#160;&#160;updateCurrentSupply(amount: uint256) &lt;&lt;oncePerYear&gt;&gt;</text>
<text text-anchor="start" x="834.93" y="-372.1" font-family="Times,serif" font-size="14.00">Public:</text>
<text text-anchor="start" x="834.93" y="-355.3" font-family="Times,serif" font-size="14.00"> &#160;&#160;&#160;&lt;&lt;modifier&gt;&gt; oncePerYear()</text>
<text text-anchor="start" x="834.93" y="-338.5" font-family="Times,serif" font-size="14.00"> &#160;&#160;&#160;&lt;&lt;modifier&gt;&gt; openCap()</text>
<text text-anchor="start" x="834.93" y="-321.7" font-family="Times,serif" font-size="14.00"> &#160;&#160;&#160;&lt;&lt;modifier&gt;&gt; onlyProjectContract()</text>
<text text-anchor="start" x="834.93" y="-304.9" font-family="Times,serif" font-size="14.00"> &#160;&#160;&#160;constructor(sharesAddress: address, _nftAdress: address, _cap: uint256)</text>
<text text-anchor="start" x="834.93" y="-288.1" font-family="Times,serif" font-size="14.00"> &#160;&#160;&#160;burnCreditsPublic() &lt;&lt;openCap&gt;&gt;</text>
<text text-anchor="start" x="834.93" y="-271.3" font-family="Times,serif" font-size="14.00"> &#160;&#160;&#160;calculateRewards(number: uint256): uint256</text>
<text text-anchor="start" x="834.93" y="-254.5" font-family="Times,serif" font-size="14.00"> &#160;&#160;&#160;doesUserExist(user: address): bool</text>
</g>
<!-- 2&#45;&gt;0 -->
<g id="edge1" class="edge">
<title>2&#45;&gt;0</title>
<path fill="none" stroke="black" d="M934.72,-656.73C914.39,-694.74 893.72,-733.42 875.12,-768.2"/>
<polygon fill="black" stroke="black" points="871.81,-766.96 870.18,-777.43 877.99,-770.26 871.81,-766.96"/>
</g>
<!-- 2&#45;&gt;1 -->
<g id="edge2" class="edge">
<title>2&#45;&gt;1</title>
<path fill="none" stroke="black" d="M1125.81,-656.73C1147.56,-710.98 1169.85,-766.56 1187.38,-810.27"/>
<polygon fill="black" stroke="black" points="1184.19,-811.72 1191.16,-819.7 1190.68,-809.11 1184.19,-811.72"/>
</g>
<!-- 4 -->
<g id="node4" class="node">
<title>4</title>
<polygon fill="#f2f2f2" stroke="black" points="242.85,-401.5 242.85,-501.5 392.98,-501.5 392.98,-401.5 242.85,-401.5"/>
<text text-anchor="middle" x="317.91" y="-484.9" font-family="Times,serif" font-size="14.00">&lt;&lt;Struct&gt;&gt;</text>
<text text-anchor="middle" x="317.91" y="-468.1" font-family="Times,serif" font-size="14.00">ContractInfo</text>
<polyline fill="none" stroke="black" points="242.85,-459.9 392.98,-459.9 "/>
<text text-anchor="start" x="250.85" y="-443.3" font-family="Times,serif" font-size="14.00">sharesContract: address</text>
<text text-anchor="start" x="250.85" y="-426.5" font-family="Times,serif" font-size="14.00">creditContract: address</text>
<text text-anchor="start" x="250.85" y="-409.7" font-family="Times,serif" font-size="14.00">minterContract: address</text>
</g>
<!-- 3 -->
<g id="node5" class="node">
<title>3</title>
<polygon fill="#f2f2f2" stroke="black" points="0,-0.5 0,-125.3 927.83,-125.3 927.83,-0.5 0,-0.5"/>
<text text-anchor="middle" x="463.91" y="-108.7" font-family="Times,serif" font-size="14.00">factoryContract</text>
<polyline fill="none" stroke="black" points="0,-100.5 927.83,-100.5 "/>
<text text-anchor="start" x="8" y="-83.9" font-family="Times,serif" font-size="14.00">Public:</text>
<text text-anchor="start" x="8" y="-67.1" font-family="Times,serif" font-size="14.00"> &#160;&#160;contracts: mapping(bytes32=&gt;ContractInfo)</text>
<polyline fill="none" stroke="black" points="0,-58.9 927.83,-58.9 "/>
<text text-anchor="start" x="8" y="-42.3" font-family="Times,serif" font-size="14.00">External:</text>
<text text-anchor="start" x="8" y="-25.5" font-family="Times,serif" font-size="14.00"> &#160;&#160;&#160;createContracts(_nftName: string, _nftSymbol: string, _price: uint256, _cap: uint256, _oracle: address, _landOwnerAddress: address): bytes32 &lt;&lt;onlyOwner&gt;&gt;</text>
<text text-anchor="start" x="8" y="-8.7" font-family="Times,serif" font-size="14.00">Public:</text>
</g>
<!-- 4&#45;&gt;3 -->
<g id="edge3" class="edge">
<title>4&#45;&gt;3</title>
<path fill="none" stroke="black" d="M334.19,-401.26C349.57,-342.57 374.58,-242.33 410.91,-161.8 414.78,-153.23 419.31,-144.52 424.06,-136.01"/>
<polygon fill="black" stroke="black" points="424.2,-135.77 423.72,-128.58 430.18,-125.37 430.66,-132.56 424.2,-135.77"/>
</g>
<!-- 3&#45;&gt;2 -->
<g id="edge7" class="edge">
<title>3&#45;&gt;2</title>
<path fill="none" stroke="black" stroke-dasharray="5,2" d="M749.82,-125.34C773.75,-135.68 796.83,-147.74 817.91,-161.8 849.39,-182.79 878.43,-209.6 904.47,-238.39"/>
<polygon fill="black" stroke="black" points="902.12,-241.01 911.38,-246.16 907.35,-236.36 902.12,-241.01"/>
</g>
<!-- 3&#45;&gt;4 -->
<g id="edge4" class="edge">
<title>3&#45;&gt;4</title>
<path fill="none" stroke="black" d="M412.49,-125.37C405.24,-137.14 398.41,-149.61 392.91,-161.8 358.56,-237.93 334.34,-331.66 323.2,-391.26"/>
<polygon fill="black" stroke="black" points="319.73,-390.79 321.4,-401.26 326.62,-392.04 319.73,-390.79"/>
</g>
<!-- 5 -->
<g id="node7" class="node">
<title>5</title>
<polygon fill="#f2f2f2" stroke="black" points="1278.61,-162.3 1278.61,-740.7 2079.21,-740.7 2079.21,-162.3 1278.61,-162.3"/>
<text text-anchor="middle" x="1678.91" y="-724.1" font-family="Times,serif" font-size="14.00">minterContract</text>
<polyline fill="none" stroke="black" points="1278.61,-715.9 2079.21,-715.9 "/>
<text text-anchor="start" x="1286.61" y="-699.3" font-family="Times,serif" font-size="14.00">Private:</text>
<text text-anchor="start" x="1286.61" y="-682.5" font-family="Times,serif" font-size="14.00"> &#160;&#160;sharesContracAddress: address</text>
<text text-anchor="start" x="1286.61" y="-665.7" font-family="Times,serif" font-size="14.00"> &#160;&#160;Oracle: address</text>
<text text-anchor="start" x="1286.61" y="-648.9" font-family="Times,serif" font-size="14.00">Public:</text>
<text text-anchor="start" x="1286.61" y="-632.1" font-family="Times,serif" font-size="14.00"> &#160;&#160;state: projectState</text>
<text text-anchor="start" x="1286.61" y="-615.3" font-family="Times,serif" font-size="14.00"> &#160;&#160;sharesContract: IShares</text>
<text text-anchor="start" x="1286.61" y="-598.5" font-family="Times,serif" font-size="14.00"> &#160;&#160;landOwner: address</text>
<text text-anchor="start" x="1286.61" y="-581.7" font-family="Times,serif" font-size="14.00"> &#160;&#160;price: uint256</text>
<text text-anchor="start" x="1286.61" y="-564.9" font-family="Times,serif" font-size="14.00"> &#160;&#160;shareContractExsist: bool</text>
<text text-anchor="start" x="1286.61" y="-548.1" font-family="Times,serif" font-size="14.00"> &#160;&#160;numberOfShares: uint256</text>
<text text-anchor="start" x="1286.61" y="-531.3" font-family="Times,serif" font-size="14.00"> &#160;&#160;currentSupply: uint256</text>
<text text-anchor="start" x="1286.61" y="-514.5" font-family="Times,serif" font-size="14.00"> &#160;&#160;maxCarbonCredit: uint256</text>
<text text-anchor="start" x="1286.61" y="-497.7" font-family="Times,serif" font-size="14.00"> &#160;&#160;minCarbonCredit: uint256</text>
<text text-anchor="start" x="1286.61" y="-480.9" font-family="Times,serif" font-size="14.00"> &#160;&#160;_tokenIds: Counters.Counter</text>
<text text-anchor="start" x="1286.61" y="-464.1" font-family="Times,serif" font-size="14.00"> &#160;&#160;lastCalled: mapping(address=&gt;uint256)</text>
<text text-anchor="start" x="1286.61" y="-447.3" font-family="Times,serif" font-size="14.00"> &#160;&#160;timeInterval: uint256</text>
<polyline fill="none" stroke="black" points="1278.61,-439.1 2079.21,-439.1 "/>
<text text-anchor="start" x="1286.61" y="-422.5" font-family="Times,serif" font-size="14.00">Internal:</text>
<text text-anchor="start" x="1286.61" y="-405.7" font-family="Times,serif" font-size="14.00"> &#160;&#160;&#160;stakeNFT(_sender: address, _tokenId: uint256)</text>
<text text-anchor="start" x="1286.61" y="-388.9" font-family="Times,serif" font-size="14.00">External:</text>
<text text-anchor="start" x="1286.61" y="-372.1" font-family="Times,serif" font-size="14.00"> &#160;&#160;&#160;mintToken(tokenURI: string, _shares: uint256): uint256 &lt;&lt;_onlyLandOwner, _checkState&gt;&gt;</text>
<text text-anchor="start" x="1286.61" y="-355.3" font-family="Times,serif" font-size="14.00"> &#160;&#160;&#160;updateOracleAddress(_oracle: address) &lt;&lt;onlyOwner&gt;&gt;</text>
<text text-anchor="start" x="1286.61" y="-338.5" font-family="Times,serif" font-size="14.00"> &#160;&#160;&#160;updateCurrentSupply(_amount: uint256): bool &lt;&lt;_onlyOracle, _checkState&gt;&gt;</text>
<text text-anchor="start" x="1286.61" y="-321.7" font-family="Times,serif" font-size="14.00"> &#160;&#160;&#160;updateCarbonEstimation(_min: uint256, _max: uint256) &lt;&lt;_onlyOracle, _checkState&gt;&gt;</text>
<text text-anchor="start" x="1286.61" y="-304.9" font-family="Times,serif" font-size="14.00">Public:</text>
<text text-anchor="start" x="1286.61" y="-288.1" font-family="Times,serif" font-size="14.00"> &#160;&#160;&#160;&lt;&lt;modifier&gt;&gt; _onlyLandOwner()</text>
<text text-anchor="start" x="1286.61" y="-271.3" font-family="Times,serif" font-size="14.00"> &#160;&#160;&#160;&lt;&lt;modifier&gt;&gt; _onlyOracle()</text>
<text text-anchor="start" x="1286.61" y="-254.5" font-family="Times,serif" font-size="14.00"> &#160;&#160;&#160;&lt;&lt;modifier&gt;&gt; _checkState(_state: projectState)</text>
<text text-anchor="start" x="1286.61" y="-237.7" font-family="Times,serif" font-size="14.00"> &#160;&#160;&#160;constructor(_landOnwer: address, _sharesAddress: address, _oracle: address, _price: uint256, _tokenName: string, _tokenSymbol: string)</text>
<text text-anchor="start" x="1286.61" y="-220.9" font-family="Times,serif" font-size="14.00"> &#160;&#160;&#160;setStateOk() &lt;&lt;onlyOwner&gt;&gt;</text>
<text text-anchor="start" x="1286.61" y="-204.1" font-family="Times,serif" font-size="14.00"> &#160;&#160;&#160;setStateNaturalDisaster() &lt;&lt;onlyOwner&gt;&gt;</text>
<text text-anchor="start" x="1286.61" y="-187.3" font-family="Times,serif" font-size="14.00"> &#160;&#160;&#160;setStateLandOwnerIssue() &lt;&lt;onlyOwner&gt;&gt;</text>
<text text-anchor="start" x="1286.61" y="-170.5" font-family="Times,serif" font-size="14.00"> &#160;&#160;&#160;setStatePaused() &lt;&lt;onlyOwner&gt;&gt;</text>
</g>
<!-- 3&#45;&gt;5 -->
<g id="edge6" class="edge">
<title>3&#45;&gt;5</title>
<path fill="none" stroke="black" stroke-dasharray="5,2" d="M928.06,-100.9C1063.44,-115.72 1193.17,-134.98 1268.6,-161.53"/>
<polygon fill="black" stroke="black" points="1267.83,-164.98 1278.42,-165.15 1270.25,-158.41 1267.83,-164.98"/>
</g>
<!-- 7 -->
<g id="node8" class="node">
<title>7</title>
<polygon fill="#f2f2f2" stroke="black" points="410.81,-271.5 410.81,-631.5 809.01,-631.5 809.01,-271.5 410.81,-271.5"/>
<text text-anchor="middle" x="609.91" y="-614.9" font-family="Times,serif" font-size="14.00">sharesContract</text>
<polyline fill="none" stroke="black" points="410.81,-606.7 809.01,-606.7 "/>
<text text-anchor="start" x="418.81" y="-590.1" font-family="Times,serif" font-size="14.00">Public:</text>
<text text-anchor="start" x="418.81" y="-573.3" font-family="Times,serif" font-size="14.00"> &#160;&#160;minterContract: IMinter</text>
<text text-anchor="start" x="418.81" y="-556.5" font-family="Times,serif" font-size="14.00"> &#160;&#160;minterAddress: address</text>
<text text-anchor="start" x="418.81" y="-539.7" font-family="Times,serif" font-size="14.00"> &#160;&#160;owner: address</text>
<text text-anchor="start" x="418.81" y="-522.9" font-family="Times,serif" font-size="14.00"> &#160;&#160;_totalSupply: uint256</text>
<text text-anchor="start" x="418.81" y="-506.1" font-family="Times,serif" font-size="14.00"> &#160;&#160;remainingSupply: uint256</text>
<text text-anchor="start" x="418.81" y="-489.3" font-family="Times,serif" font-size="14.00"> &#160;&#160;tokenOwnerOf: mapping(uint256=&gt;address)</text>
<text text-anchor="start" x="418.81" y="-472.5" font-family="Times,serif" font-size="14.00"> &#160;&#160;isStaked: mapping(uint256=&gt;bool)</text>
<polyline fill="none" stroke="black" points="410.81,-464.3 809.01,-464.3 "/>
<text text-anchor="start" x="418.81" y="-447.7" font-family="Times,serif" font-size="14.00">Internal:</text>
<text text-anchor="start" x="418.81" y="-430.9" font-family="Times,serif" font-size="14.00"> &#160;&#160;&#160;stake(_sender: address, tokenId: uint256)</text>
<text text-anchor="start" x="418.81" y="-414.1" font-family="Times,serif" font-size="14.00"> &#160;&#160;&#160;setTotalSupply()</text>
<text text-anchor="start" x="418.81" y="-397.3" font-family="Times,serif" font-size="14.00">External:</text>
<text text-anchor="start" x="418.81" y="-380.5" font-family="Times,serif" font-size="14.00"> &#160;&#160;&#160;setMinterNFT(_sender: address, _nft: address, _tokenId: uint256)</text>
<text text-anchor="start" x="418.81" y="-363.7" font-family="Times,serif" font-size="14.00">Public:</text>
<text text-anchor="start" x="418.81" y="-346.9" font-family="Times,serif" font-size="14.00"> &#160;&#160;&#160;&lt;&lt;payable&gt;&gt; buyShares(shares: uint256): bool</text>
<text text-anchor="start" x="418.81" y="-330.1" font-family="Times,serif" font-size="14.00"> &#160;&#160;&#160;&lt;&lt;modifier&gt;&gt; _onlyOwner()</text>
<text text-anchor="start" x="418.81" y="-313.3" font-family="Times,serif" font-size="14.00"> &#160;&#160;&#160;constructor()</text>
<text text-anchor="start" x="418.81" y="-296.5" font-family="Times,serif" font-size="14.00"> &#160;&#160;&#160;transferShares(to: address, shares: uint256): bool</text>
<text text-anchor="start" x="418.81" y="-279.7" font-family="Times,serif" font-size="14.00"> &#160;&#160;&#160;getPrice(_amount: uint256): uint256</text>
</g>
<!-- 3&#45;&gt;7 -->
<g id="edge5" class="edge">
<title>3&#45;&gt;7</title>
<path fill="none" stroke="black" stroke-dasharray="5,2" d="M487.21,-125.59C501.28,-162.84 520.03,-212.51 538.64,-261.78"/>
<polygon fill="black" stroke="black" points="535.43,-263.18 542.24,-271.3 541.98,-260.7 535.43,-263.18"/>
</g>
<!-- 6 -->
<g id="node6" class="node">
<title>6</title>
<polygon fill="#f2f2f2" stroke="black" points="1618.23,-828.1 1618.23,-961.7 1739.59,-961.7 1739.59,-828.1 1618.23,-828.1"/>
<text text-anchor="middle" x="1678.91" y="-945.1" font-family="Times,serif" font-size="14.00">&lt;&lt;Enum&gt;&gt;</text>
<text text-anchor="middle" x="1678.91" y="-928.3" font-family="Times,serif" font-size="14.00">projectState</text>
<polyline fill="none" stroke="black" points="1618.23,-920.1 1739.59,-920.1 "/>
<text text-anchor="start" x="1626.23" y="-903.5" font-family="Times,serif" font-size="14.00">initated: 0</text>
<text text-anchor="start" x="1626.23" y="-886.7" font-family="Times,serif" font-size="14.00">allOk: 1</text>
<text text-anchor="start" x="1626.23" y="-869.9" font-family="Times,serif" font-size="14.00">naturalDisaster: 2</text>
<text text-anchor="start" x="1626.23" y="-853.1" font-family="Times,serif" font-size="14.00">landOwnerIssue: 3</text>
<text text-anchor="start" x="1626.23" y="-836.3" font-family="Times,serif" font-size="14.00">paused: 4</text>
</g>
<!-- 6&#45;&gt;5 -->
<g id="edge8" class="edge">
<title>6&#45;&gt;5</title>
<path fill="none" stroke="black" d="M1683.89,-827.92C1684.5,-806.28 1684.96,-780.66 1685.25,-753.11"/>
<polygon fill="black" stroke="black" points="1685.26,-752.76 1681.31,-746.72 1685.37,-740.76 1689.31,-746.8 1685.26,-752.76"/>
</g>
<!-- 5&#45;&gt;1 -->
<g id="edge10" class="edge">
<title>5&#45;&gt;1</title>
<path fill="none" stroke="black" d="M1379.81,-740.76C1353.13,-766.48 1327.85,-790.84 1305.62,-812.26"/>
<polygon fill="black" stroke="black" points="1302.98,-809.95 1298.21,-819.41 1307.84,-814.99 1302.98,-809.95"/>
</g>
<!-- 5&#45;&gt;6 -->
<g id="edge9" class="edge">
<title>5&#45;&gt;6</title>
<path fill="none" stroke="black" d="M1672.45,-740.76C1672.7,-768.7 1673.1,-795.05 1673.66,-817.75"/>
<polygon fill="black" stroke="black" points="1670.17,-818.02 1673.93,-827.92 1677.17,-817.83 1670.17,-818.02"/>
</g>
<!-- 7&#45;&gt;0 -->
<g id="edge11" class="edge">
<title>7&#45;&gt;0</title>
<path fill="none" stroke="black" d="M690.3,-631.72C710.86,-677.55 732.54,-725.86 751.6,-768.35"/>
<polygon fill="black" stroke="black" points="748.46,-769.92 755.75,-777.61 754.85,-767.05 748.46,-769.92"/>
</g>
</g>
</svg>
